<svg width="189" height="40" viewBox="0 0 189 40" fill="none" xmlns="http://www.w3.org/2000/svg">
<g clip-path="url(#clip0_601_23)">
<mask id="mask0_601_23" style="mask-type:luminance" maskUnits="userSpaceOnUse" x="3" y="3" width="34" height="34">
<path d="M33.6 3H6.4C4.52223 3 3 4.52223 3 6.4V33.6C3 35.4778 4.52223 37 6.4 37H33.6C35.4778 37 37 35.4778 37 33.6V6.4C37 4.52223 35.4778 3 33.6 3Z" fill="white"/>
</mask>
<g mask="url(#mask0_601_23)">
<path d="M37 3H3V37H37V3Z" fill="#EE7C3C"/>
<path d="M17.1058 22.1172L4.16836 37H3V33.5433V30.2V23.6266L9.83547 15.7971L17.1058 22.1172Z" fill="#464646"/>
<g filter="url(#filter0_d_601_23)">
<path d="M36.011 28.1689L19.1498 37L6.11416 36.9915H3.03271V32.1182L20.0542 14.3949L36.011 28.1689Z" fill="#464646"/>
</g>
<g filter="url(#filter1_d_601_23)">
<path d="M24.5914 25.2828L18.7403 33.5219C18.7097 33.565 18.6694 33.592 18.6264 33.5985C18.5832 33.605 18.5398 33.5906 18.5034 33.5576C18.4669 33.5246 18.4396 33.4752 18.426 33.4174C18.4124 33.3596 18.4132 33.2971 18.4285 33.2401L19.9419 27.594H15.5428C15.5048 27.5939 15.4679 27.5778 15.4365 27.5479C15.4052 27.518 15.381 27.4756 15.3669 27.4262C15.353 27.3768 15.3498 27.3225 15.3579 27.2706C15.3661 27.2187 15.3851 27.1713 15.4126 27.1347L21.5997 18.9391C21.6312 18.8973 21.6721 18.872 21.7154 18.8675C21.7587 18.8628 21.8017 18.8793 21.8374 18.9138C21.8731 18.9485 21.8993 18.9993 21.9117 19.0578C21.9239 19.1161 21.9215 19.1788 21.9049 19.235L20.2468 24.8274H24.4571C24.4947 24.8274 24.5313 24.843 24.5625 24.8722C24.5937 24.9015 24.618 24.9429 24.6324 24.9916C24.6467 25.0402 24.6505 25.0937 24.6432 25.1453C24.636 25.197 24.618 25.2444 24.5914 25.2817V25.2828Z" fill="#E7E026"/>
</g>
<g filter="url(#filter2_d_601_23)">
<path d="M10.2535 11.84C12.1313 11.84 13.6535 10.3178 13.6535 8.44004C13.6535 6.56227 12.1313 5.04004 10.2535 5.04004C8.37575 5.04004 6.85352 6.56227 6.85352 8.44004C6.85352 10.3178 8.37575 11.84 10.2535 11.84Z" fill="#E7E026"/>
</g>
<g filter="url(#filter3_d_601_23)">
<path d="M36.9999 16.4867L19.2065 37H36.9999V16.4867Z" fill="#464646"/>
</g>
</g>
</g>
<path d="M45.8 31L53.992 8.6H58.28L66.472 31H62.408L56.104 13.08L49.8 31H45.8ZM49.448 25.72L50.472 22.68H61.512L62.536 25.72H49.448ZM69.4253 31V7.96H73.2653V31H69.4253ZM84.5583 31C83.4703 31 82.5209 30.8293 81.7103 30.488C80.9209 30.1467 80.3023 29.5813 79.8543 28.792C79.4063 28.0027 79.1823 26.936 79.1823 25.592V18.104H76.4303V14.872H79.1823L79.6302 10.616H83.0223V14.872H87.4063V18.104H83.0223V25.592C83.0223 26.4027 83.1929 26.968 83.5343 27.288C83.8969 27.5867 84.4943 27.736 85.3263 27.736H87.3103V31H84.5583ZM98.9595 31V8.6H103.504L110.672 23.064L117.776 8.6H122.352V31H118.512V15.192L112.176 27.864H109.168L102.8 15.224V31H98.9595ZM132.145 31.384C130.822 31.384 129.724 31.16 128.849 30.712C127.974 30.264 127.324 29.6667 126.897 28.92C126.47 28.1733 126.257 27.3627 126.257 26.488C126.257 25.464 126.513 24.5787 127.025 23.832C127.558 23.0853 128.337 22.5093 129.361 22.104C130.385 21.6773 131.644 21.464 133.137 21.464H137.201C137.201 20.6107 137.084 19.9067 136.849 19.352C136.614 18.776 136.252 18.3493 135.761 18.072C135.27 17.7947 134.641 17.656 133.873 17.656C132.998 17.656 132.252 17.8587 131.633 18.264C131.014 18.648 130.63 19.2453 130.481 20.056H126.705C126.833 18.904 127.217 17.9227 127.857 17.112C128.497 16.28 129.34 15.64 130.385 15.192C131.452 14.7227 132.614 14.488 133.873 14.488C135.388 14.488 136.678 14.7547 137.745 15.288C138.812 15.8 139.622 16.5467 140.177 17.528C140.753 18.488 141.041 19.6507 141.041 21.016V31H137.777L137.393 28.408C137.18 28.8347 136.902 29.2293 136.561 29.592C136.241 29.9547 135.868 30.2747 135.441 30.552C135.014 30.808 134.524 31.0107 133.969 31.16C133.436 31.3093 132.828 31.384 132.145 31.384ZM133.009 28.344C133.628 28.344 134.172 28.2373 134.641 28.024C135.132 27.7893 135.548 27.4693 135.889 27.064C136.252 26.6373 136.529 26.168 136.721 25.656C136.913 25.144 137.041 24.6 137.105 24.024V23.96H133.553C132.806 23.96 132.188 24.056 131.697 24.248C131.206 24.4187 130.854 24.6747 130.641 25.016C130.428 25.3573 130.321 25.752 130.321 26.2C130.321 26.648 130.428 27.032 130.641 27.352C130.854 27.672 131.164 27.9173 131.569 28.088C131.974 28.2587 132.454 28.344 133.009 28.344ZM151.928 38.424C150.413 38.424 149.08 38.232 147.928 37.848C146.797 37.4853 145.912 36.92 145.272 36.152C144.653 35.4053 144.344 34.4667 144.344 33.336C144.344 32.6747 144.504 32.024 144.824 31.384C145.165 30.7653 145.667 30.1893 146.328 29.656C147.011 29.1013 147.875 28.6213 148.92 28.216L150.616 30.072C149.592 30.4347 148.877 30.872 148.472 31.384C148.067 31.896 147.864 32.4187 147.864 32.952C147.864 33.5067 148.035 33.9653 148.376 34.328C148.739 34.712 149.219 35 149.816 35.192C150.435 35.384 151.128 35.48 151.896 35.48C152.643 35.48 153.293 35.3733 153.848 35.16C154.403 34.968 154.829 34.6907 155.128 34.328C155.448 33.9653 155.608 33.528 155.608 33.016C155.608 32.376 155.384 31.8533 154.936 31.448C154.488 31.064 153.603 30.8293 152.28 30.744C151.149 30.6587 150.157 30.5413 149.304 30.392C148.451 30.2213 147.715 30.0293 147.096 29.816C146.499 29.6027 145.987 29.368 145.56 29.112C145.133 28.8347 144.781 28.5573 144.504 28.28V27.544L147.864 24.024L150.712 24.952L146.936 28.632L147.928 26.776C148.141 26.9253 148.355 27.064 148.568 27.192C148.803 27.32 149.091 27.4373 149.432 27.544C149.795 27.6293 150.264 27.7147 150.84 27.8C151.416 27.8853 152.163 27.9707 153.08 28.056C154.509 28.1627 155.672 28.4187 156.568 28.824C157.464 29.2293 158.125 29.7733 158.552 30.456C158.979 31.1387 159.192 31.96 159.192 32.92C159.192 33.8587 158.925 34.744 158.392 35.576C157.88 36.408 157.091 37.0907 156.024 37.624C154.957 38.1573 153.592 38.424 151.928 38.424ZM151.928 26.168C150.584 26.168 149.421 25.912 148.44 25.4C147.48 24.8667 146.744 24.1627 146.232 23.288C145.72 22.392 145.464 21.4107 145.464 20.344C145.464 19.256 145.72 18.2747 146.232 17.4C146.744 16.5253 147.48 15.8213 148.44 15.288C149.421 14.7547 150.584 14.488 151.928 14.488C153.272 14.488 154.424 14.7547 155.384 15.288C156.344 15.8213 157.08 16.5253 157.592 17.4C158.104 18.2747 158.36 19.256 158.36 20.344C158.36 21.4107 158.104 22.392 157.592 23.288C157.08 24.1627 156.344 24.8667 155.384 25.4C154.424 25.912 153.272 26.168 151.928 26.168ZM151.928 23.192C152.845 23.192 153.581 22.9467 154.136 22.456C154.691 21.9653 154.968 21.2613 154.968 20.344C154.968 19.4267 154.691 18.7333 154.136 18.264C153.581 17.7733 152.845 17.528 151.928 17.528C151.011 17.528 150.264 17.7733 149.688 18.264C149.112 18.7333 148.824 19.4267 148.824 20.344C148.824 21.2613 149.112 21.9653 149.688 22.456C150.264 22.9467 151.011 23.192 151.928 23.192ZM154.584 17.688L153.848 14.872H160.472V17.272L154.584 17.688ZM164.023 31V14.872H167.863V31H164.023ZM165.943 12.312C165.239 12.312 164.652 12.0987 164.183 11.672C163.735 11.224 163.511 10.68 163.511 10.04C163.511 9.37867 163.735 8.84533 164.183 8.44C164.652 8.01333 165.239 7.8 165.943 7.8C166.647 7.8 167.223 8.01333 167.671 8.44C168.14 8.84533 168.375 9.37867 168.375 10.04C168.375 10.68 168.14 11.224 167.671 11.672C167.223 12.0987 166.647 12.312 165.943 12.312ZM179.948 31.384C178.37 31.384 176.951 31.032 175.692 30.328C174.455 29.6027 173.484 28.6107 172.78 27.352C172.098 26.072 171.756 24.6213 171.756 23C171.756 21.3147 172.098 19.8427 172.78 18.584C173.484 17.304 174.455 16.3013 175.692 15.576C176.951 14.8507 178.38 14.488 179.98 14.488C181.986 14.488 183.671 15.0213 185.036 16.088C186.402 17.1333 187.276 18.5733 187.66 20.408H183.628C183.415 19.5973 182.967 18.9573 182.284 18.488C181.623 18.0187 180.834 17.784 179.916 17.784C179.127 17.784 178.402 17.9867 177.74 18.392C177.1 18.7973 176.588 19.384 176.204 20.152C175.842 20.92 175.66 21.848 175.66 22.936C175.66 23.768 175.767 24.504 175.98 25.144C176.194 25.784 176.492 26.328 176.876 26.776C177.282 27.2027 177.74 27.5333 178.252 27.768C178.764 28.0027 179.319 28.12 179.916 28.12C180.535 28.12 181.09 28.024 181.58 27.832C182.092 27.6187 182.519 27.3093 182.86 26.904C183.223 26.4987 183.479 26.0187 183.628 25.464H187.66C187.276 27.256 186.402 28.696 185.036 29.784C183.671 30.8507 181.975 31.384 179.948 31.384Z" fill="#EE7E3E"/>
<defs>
<filter id="filter0_d_601_23" x="-31.9673" y="-4.6051" width="70.9785" height="60.6051" filterUnits="userSpaceOnUse" color-interpolation-filters="sRGB">
<feFlood flood-opacity="0" result="BackgroundImageFix"/>
<feColorMatrix in="SourceAlpha" type="matrix" values="0 0 0 0 0 0 0 0 0 0 0 0 0 0 0 0 0 0 127 0" result="hardAlpha"/>
<feOffset dx="-16"/>
<feGaussianBlur stdDeviation="9.5"/>
<feComposite in2="hardAlpha" operator="out"/>
<feColorMatrix type="matrix" values="0 0 0 0 0 0 0 0 0 0 0 0 0 0 0 0 0 0 0.25 0"/>
<feBlend mode="normal" in2="BackgroundImageFix" result="effect1_dropShadow_601_23"/>
<feBlend mode="normal" in="SourceGraphic" in2="effect1_dropShadow_601_23" result="shape"/>
</filter>
<filter id="filter1_d_601_23" x="11.3535" y="18.8667" width="17.2935" height="22.7334" filterUnits="userSpaceOnUse" color-interpolation-filters="sRGB">
<feFlood flood-opacity="0" result="BackgroundImageFix"/>
<feColorMatrix in="SourceAlpha" type="matrix" values="0 0 0 0 0 0 0 0 0 0 0 0 0 0 0 0 0 0 127 0" result="hardAlpha"/>
<feOffset dy="4"/>
<feGaussianBlur stdDeviation="2"/>
<feComposite in2="hardAlpha" operator="out"/>
<feColorMatrix type="matrix" values="0 0 0 0 0 0 0 0 0 0 0 0 0 0 0 0 0 0 0.25 0"/>
<feBlend mode="normal" in2="BackgroundImageFix" result="effect1_dropShadow_601_23"/>
<feBlend mode="normal" in="SourceGraphic" in2="effect1_dropShadow_601_23" result="shape"/>
</filter>
<filter id="filter2_d_601_23" x="-2.14648" y="-3.95996" width="24.7998" height="24.8" filterUnits="userSpaceOnUse" color-interpolation-filters="sRGB">
<feFlood flood-opacity="0" result="BackgroundImageFix"/>
<feColorMatrix in="SourceAlpha" type="matrix" values="0 0 0 0 0 0 0 0 0 0 0 0 0 0 0 0 0 0 127 0" result="hardAlpha"/>
<feOffset/>
<feGaussianBlur stdDeviation="4.5"/>
<feComposite in2="hardAlpha" operator="out"/>
<feColorMatrix type="matrix" values="0 0 0 0 0 0 0 0 0 0 0 0 0 0 0 0 0 0 0.12 0"/>
<feBlend mode="normal" in2="BackgroundImageFix" result="effect1_dropShadow_601_23"/>
<feBlend mode="normal" in="SourceGraphic" in2="effect1_dropShadow_601_23" result="shape"/>
</filter>
<filter id="filter3_d_601_23" x="-15.7935" y="-2.51331" width="55.7935" height="58.5133" filterUnits="userSpaceOnUse" color-interpolation-filters="sRGB">
<feFlood flood-opacity="0" result="BackgroundImageFix"/>
<feColorMatrix in="SourceAlpha" type="matrix" values="0 0 0 0 0 0 0 0 0 0 0 0 0 0 0 0 0 0 127 0" result="hardAlpha"/>
<feOffset dx="-16"/>
<feGaussianBlur stdDeviation="9.5"/>
<feComposite in2="hardAlpha" operator="out"/>
<feColorMatrix type="matrix" values="0 0 0 0 0 0 0 0 0 0 0 0 0 0 0 0 0 0 0.25 0"/>
<feBlend mode="normal" in2="BackgroundImageFix" result="effect1_dropShadow_601_23"/>
<feBlend mode="normal" in="SourceGraphic" in2="effect1_dropShadow_601_23" result="shape"/>
</filter>
<clipPath id="clip0_601_23">
<rect width="34" height="34" fill="white" transform="translate(3 3)"/>
</clipPath>
</defs>
</svg>
